Coordinates
version=1
nRows=18
nColumns=38
inDegrees=yes

Units are S.I. units (second, meters, Newtons, ...)
Angles are in degrees.

endheader
time	pelvis_tilt	pelvis_list	pelvis_rotation	pelvis_tx	pelvis_ty	pelvis_tz	hip_flexion_r	hip_adduction_r	hip_rotation_r	knee_angle_r	ankle_angle_r	subtalar_angle_r	mtp_angle_r	hip_flexion_l	hip_adduction_l	hip_rotation_l	knee_angle_l	ankle_angle_l	subtalar_angle_l	mtp_angle_l	lumbar_extension	lumbar_bending	lumbar_rotation	arm_flex_r	arm_add_r	arm_rot_r	elbow_flex_r	pro_sup_r	wrist_flex_r	wrist_dev_r	arm_flex_l	arm_add_l	arm_rot_l	elbow_flex_l	pro_sup_l	wrist_flex_l	wrist_dev_l
      1.74000000	     -0.00855021	      0.51349296	     -5.09519635	      0.32224656	      0.96587114	     -0.24419951	     25.90247604	      0.75370050	     -2.27936659	    -51.79952875	      4.19007379	     -5.28836352	      0.00000000	      4.79130988	      6.79170852	      3.54015418	    -18.67789488	      9.84082209	    -11.76425240	      0.00000000	    -11.72456272	     -2.32794400	     -5.27519892	     -2.55828116	     -9.28027458	     30.58043043	     47.12415684	     41.24806475	      0.00000000	      0.00000000	      3.08167696	     -7.15878912	     19.87462487	     48.82542406	     41.24806475	      0.00000000	      0.00000000
      1.75000000	      0.00569138	      0.30935655	     -4.79785209	      0.33268898	      0.96568976	     -0.24427812	     26.49047158	      0.88036671	     -3.49831982	    -48.95937870	      2.84165701	     -6.95040215	      0.00000000	      3.93284308	      6.63038344	      3.90868219	    -18.45606764	     10.37403680	    -11.67189213	      0.00000000	    -11.77029927	     -2.08220180	     -5.51348032	     -3.06587894	     -9.26207688	     30.16747650	     46.81183854	     41.32144665	      0.00000000	      0.00000000	      3.66352967	     -7.20556829	     20.33826164	     49.34583949	     41.32144665	      0.00000000	      0.00000000
      1.76000000	     -0.15990471	      0.41679442	     -4.45498452	      0.34305818	      0.96486093	     -0.24449442	     26.90931633	      0.74179349	     -4.18439407	    -45.72798137	      3.10239534	     -7.05829275	      0.00000000	      3.33273365	      6.76556518	      4.16011644	    -18.27201278	     10.67720498	    -11.48699943	      0.00000000	    -11.58480051	     -2.18965126	     -5.86046441	     -3.57231322	     -9.27926445	     30.11043137	     46.63118764	     41.33802348	      0.00000000	      0.00000000	      4.23141851	     -7.18208446	     20.41529659	     49.60730999	     41.33802348	      0.00000000	      0.00000000
      1.77000000	     -0.30931845	      0.56546502	     -4.11042083	      0.35356858	      0.96383550	     -0.24478861	     26.97681066	      0.72199665	     -4.24361347	    -42.03542480	      3.61104184	     -6.85650621	      0.00000000	      2.74010478	      6.93924755	      4.40185227	    -18.14683465	     11.12731477	    -11.28295034	      0.00000000	    -11.37726040	     -2.27880944	     -6.25511311	     -4.05018453	     -9.28313413	     30.05149027	     46.44184609	     41.35163677	      0.00000000	      0.00000000	      4.82175940	     -7.19681281	     20.49841594	     49.87343778	     41.35163677	      0.00000000	      0.00000000
      1.78000000	     -0.24352535	      0.53684480	     -3.71258349	      0.36424747	      0.96316910	     -0.24496710	     26.92954084	      0.70062550	     -5.09548749	    -38.44248347	      3.26323039	     -6.82233751	      0.00000000	      1.66276602	      6.92534880	      4.88817981	    -17.63182314	     11.64192382	    -10.96956758	      0.00000000	    -11.46834429	     -2.22131968	     -6.52276462	     -4.61574162	     -9.23008695	     29.84447418	     46.10270819	     41.38029700	      0.00000000	      0.00000000	      5.46887755	     -7.17361313	     20.77609717	     50.30257509	     41.38029700	      0.00000000	      0.00000000
      1.79000000	     -0.28856459	      0.68862300	     -3.30881253	      0.37484585	      0.96213377	     -0.24524047	     26.93521882	      0.58912670	     -5.48946589	    -34.82772936	      3.03304885	     -6.36902664	      0.00000000	      0.86652902	      7.07844270	      5.17935891	    -17.35994136	     12.01682546	    -10.72029521	      0.00000000	    -11.42471113	     -2.34902691	     -6.90743216	     -5.04583909	     -8.55868184	     27.82109293	     45.06533560	     41.63949296	      0.00000000	      0.00000000	      6.03959739	     -7.81553929	     22.99073082	     51.34375952	     41.63949296	      0.00000000	      0.00000000
      1.80000000	     -0.32782290	      0.82819606	     -2.84752267	      0.38554537	      0.96099151	     -0.24557551	     26.98102259	      0.43234786	     -6.22615880	    -31.37763374	      2.62976087	     -5.76817710	      0.00000000	      0.08350083	      7.17657128	      5.36580480	    -17.11396433	     12.47645767	    -10.44260429	      0.00000000	    -11.40524978	     -2.45881967	     -7.28569285	     -5.56505614	     -8.53506719	     27.77392257	     44.97472032	     41.66439602	      0.00000000	      0.00000000	      6.65468508	     -7.71110443	     23.05642036	     51.50338345	     41.66439602	      0.00000000	      0.00000000
      1.81000000	     -0.29759909	      0.93820510	     -2.35337474	      0.39634001	      0.95989591	     -0.24595407	     26.89784232	      0.32797263	     -6.79096209	    -27.99442951	      2.31036543	     -4.72225132	      0.00000000	     -0.79701585	      7.30051517	      5.89100684	    -16.91043378	     12.83014955	    -10.11776165	      0.00000000	    -11.45134686	     -2.51535117	     -7.68365038	     -6.02877209	     -8.47583654	     27.65759793	     44.81952579	     41.69159942	      0.00000000	      0.00000000	      7.25824394	     -7.61534328	     23.18656765	     51.70974879	     41.69159942	      0.00000000	      0.00000000
      1.82000000	     -0.18569196	      1.03985897	     -1.82268563	      0.40728094	      0.95884762	     -0.24639267	     26.74616653	      0.22395460	     -7.26673367	    -24.86664272	      2.18015669	     -3.27919234	      0.00000000	     -1.73293279	      7.39243344	      6.07921398	    -16.72846756	     13.22515774	     -9.93466497	      0.00000000	    -11.59639250	     -2.55608804	     -8.08948931	     -6.45458538	     -8.36883283	     27.43841917	     44.58344574	     41.72532951	      0.00000000	      0.00000000	      7.83512274	     -7.52063552	     23.40970529	     51.94946321	     41.72532951	      0.00000000	      0.00000000
      1.83000000	     -0.12704679	      1.22331209	     -1.25387400	      0.41820943	      0.95753932	     -0.24689503	     26.77194072	     -0.07478915	     -7.91857803	    -22.23571172	      2.52597980	     -0.90980793	      0.00000000	     -2.57683044	      7.53608732	      6.10595537	    -16.62778856	     13.60385896	     -9.55332153	      0.00000000	    -11.68162807	     -2.68466761	     -8.58320603	     -6.83394479	     -8.02129238	     26.44984678	     44.05653722	     41.85404792	      0.00000000	      0.00000000	      8.43430195	     -7.61848524	     24.31190306	     52.23762213	     41.85404792	      0.00000000	      0.00000000
      1.84000000	      0.06617520	      1.41010043	     -0.75914649	      0.42937648	      0.95660277	     -0.24721533	     26.49220707	     -0.27136201	     -7.76927983	    -19.54191630	      2.82540413	      0.96629547	      0.00000000	     -3.89904626	      7.76735376	      7.32988420	    -15.97561073	     13.28485332	    -10.34473414	      0.00000000	    -11.90122099	     -2.81482290	     -8.95201980	     -7.44442330	     -7.57556280	     24.61028576	     43.92817425	     42.21512095	      0.00000000	      0.00000000	      9.28501222	     -7.77901803	     25.99449346	     52.08563243	     42.21512095	      0.00000000	      0.00000000
      1.85000000	      0.28285300	      1.54290217	     -0.31166444	      0.44067148	      0.95564411	     -0.24726846	     26.16365611	     -0.34078463	     -7.42090057	    -17.00607062	      3.30550600	      2.42846749	      0.00000000	     -5.00970712	      7.77695169	      7.45800476	    -15.73566807	     13.65521057	     -9.88700770	      0.00000000	    -12.15398143	     -2.90729204	     -9.31668745	     -7.85062429	     -7.41692622	     24.55867528	     43.78957244	     42.24172647	      0.00000000	      0.00000000	      9.71725851	     -7.68215194	     26.06041969	     52.21405688	     42.24172647	      0.00000000	      0.00000000
      1.86000000	      0.24423559	      1.70738869	      0.18869110	      0.45190352	      0.95416690	     -0.24740661	     26.14536176	     -0.48254101	     -6.84169115	    -14.93419817	      3.94750543	      3.49631347	      0.00000000	     -5.75110372	      7.82860734	      7.79300430	    -15.70167081	     13.97862285	     -9.53184969	      0.00000000	    -12.09573535	     -3.01334934	     -9.73683859	     -8.16557674	     -7.33560276	     24.53009892	     43.65131772	     42.25152125	      0.00000000	      0.00000000	     10.09423837	     -7.55269472	     26.10053927	     52.34796699	     42.25152125	      0.00000000	      0.00000000
      1.87000000	      0.41889200	      1.57217974	      1.17083527	      0.46240864	      0.95305401	     -0.24842100	     25.75143335	     -0.63391415	     -6.95299195	    -12.87095530	      4.20574685	      4.73270172	      0.00000000	     -6.53464815	      7.48933257	      8.28722354	    -15.97771160	     14.57088514	     -8.84964072	      0.00000000	    -12.46705253	     -2.67239504	    -10.55919583	     -8.35610010	     -7.12112238	     24.27582860	     43.31156737	     42.27849259	      0.00000000	      0.00000000	     10.63921340	     -7.42169063	     26.26212641	     52.55445628	     42.27849259	      0.00000000	      0.00000000
      1.88000000	      0.44979694	      1.60629923	      1.73572079	      0.47353715	      0.95166410	     -0.24842975	     25.60484716	     -0.80073502	     -6.68936283	    -11.39257228	      4.72099970	      6.06963082	      0.00000000	     -7.03827493	      7.25252816	      7.80714268	    -16.52799148	     15.32365118	     -7.13173544	      0.00000000	    -12.52428870	     -2.62034734	    -11.04880908	     -8.38029790	     -6.50347860	     23.04591526	     42.01524010	     42.41524057	      0.00000000	      0.00000000	     11.06562847	     -7.55543594	     27.15551202	     52.80428731	     42.41524057	      0.00000000	      0.00000000
      1.89000000	      0.51026230	      1.66964846	      2.26844573	      0.48493663	      0.95038097	     -0.24843270	     25.33548717	     -0.94273683	     -6.30312929	    -10.15814638	      5.00540554	      6.41406963	      0.00000000	     -7.75933543	      7.14133788	      8.11859650	    -16.75250873	     15.55145876	     -6.71889823	      0.00000000	    -12.59784509	     -2.59418035	    -11.55449791	     -8.60658809	     -6.38190382	     22.95403577	     41.85193864	     42.43871077	      0.00000000	      0.00000000	     11.35204880	     -7.44782701	     27.27182201	     52.87891193	     42.43871077	      0.00000000	      0.00000000
      1.90000000	      0.50193574	      1.70357744	      2.82246956	      0.49640503	      0.94892024	     -0.24842896	     25.30782693	     -1.16707009	     -6.99791302	     -9.75173106	      5.43573746	      7.07591209	      0.00000000	     -8.24155587	      6.92720199	      7.99535470	    -17.29362996	     16.00729585	     -5.56753781	      0.00000000	    -12.57329285	     -2.52948380	    -12.06718978	     -8.63400674	     -6.00719013	     22.31105776	     40.97408661	     42.55355265	      0.00000000	      0.00000000	     11.64769505	     -7.47436233	     27.90457206	     52.95450354	     42.55355265	      0.00000000	      0.00000000
      1.91000000	      0.35218880	      1.66838112	      3.63808606	      0.50749036	      0.94715733	     -0.24914842	     25.46698193	     -1.46283246	     -7.91977699	     -9.89851190	      5.50715133	      6.85042454	      0.00000000	     -8.49921497	      6.72620763	      8.68334568	    -17.97322628	     16.31172310	     -5.22229988	      0.00000000	    -12.44426044	     -2.27527712	    -12.89515588	     -8.70829212	     -5.91484989	     22.25395373	     40.85351619	     42.57175068	      0.00000000	      0.00000000	     11.85470949	     -7.37642587	     27.98992960	     53.00037873	     42.57175068	      0.00000000	      0.00000000
